<?xml version="1.0" standalone="no"?>
<!DOCTYPE svg PUBLIC "-//W3C//DTD SVG 20010904//EN"
 "http://www.w3.org/TR/2001/REC-SVG-20010904/DTD/svg10.dtd">
<svg version="1.0" xmlns="http://www.w3.org/2000/svg"
 width="800.000000pt" height="800.000000pt" viewBox="0 0 800.000000 800.000000"
 preserveAspectRatio="xMidYMid meet">

<g transform="translate(0.000000,800.000000) scale(0.100000,-0.100000)"
fill="#000000" stroke="none">
<path d="M6269 7178 c-11 -13 -37 -60 -58 -105 -21 -45 -51 -102 -66 -125 -60
-91 -294 -298 -337 -298 -10 0 -49 16 -87 36 l-70 36 6 136 c5 112 3 144 -10
175 -17 39 -32 45 -62 23 -16 -12 -18 -23 -12 -123 4 -60 4 -124 1 -142 -8
-38 -3 -38 -159 3 -246 65 -468 97 -820 116 -249 13 -424 12 -670 -5 -566 -39
-948 -112 -1308 -248 -231 -89 -512 -238 -742 -396 -123 -84 -123 -84 -169
-126 -18 -17 -50 -43 -72 -60 -50 -38 -329 -316 -374 -374 -19 -24 -55 -74
-79 -110 -24 -36 -48 -67 -53 -69 -4 -2 -8 -7 -8 -12 0 -4 -32 -61 -72 -126
-39 -66 -83 -140 -97 -166 -14 -26 -57 -98 -94 -160 -84 -139 -87 -144 -87
-163 0 -8 -3 -15 -8 -15 -4 0 -13 -17 -20 -37 -45 -130 -53 -212 -27 -247 23
-30 19 -34 -27 -33 -88 2 -189 -31 -249 -81 -42 -34 -110 -149 -159 -267 -48
-115 -37 -347 21 -473 34 -71 78 -106 204 -159 113 -48 156 -56 254 -51 l88 5
7 -83 c4 -46 18 -126 32 -179 27 -105 132 -388 145 -393 5 -2 9 -10 9 -17 0
-8 10 -33 23 -57 79 -147 102 -187 126 -218 15 -19 47 -64 71 -100 48 -72 94
-133 125 -166 11 -11 54 -58 95 -104 70 -77 269 -259 334 -305 25 -18 89 -67
123 -95 7 -6 16 -10 21 -10 4 0 17 -8 28 -18 63 -57 341 -210 554 -304 261
-115 563 -192 996 -254 148 -21 604 -30 742 -15 201 22 277 33 402 57 133 26
365 86 415 108 17 7 46 17 65 21 19 4 40 11 45 15 6 4 28 13 50 20 70 23 226
96 325 153 86 50 245 151 295 188 22 17 70 52 107 78 181 130 420 362 550 532
12 17 35 45 49 63 14 17 47 63 72 101 26 39 55 80 65 93 22 28 131 242 171
337 74 176 123 317 150 439 l17 81 30 -5 c67 -12 339 -5 384 9 82 27 181 106
217 175 38 73 65 174 70 267 5 81 2 111 -17 185 -44 171 -90 274 -148 332 -62
62 -94 82 -165 103 -59 18 -87 21 -210 17 -91 -2 -150 -8 -166 -17 l-23 -13 8
64 c17 119 8 264 -21 373 -31 118 -77 259 -104 318 -11 23 -31 68 -45 101 -25
57 -120 227 -143 256 -6 8 -42 56 -80 106 -84 113 -112 147 -243 298 -58 67
-143 166 -190 221 -47 54 -103 118 -124 142 -38 43 -39 44 -20 61 39 35 80 45
219 51 142 7 185 18 185 48 0 14 -15 15 -137 10 -156 -8 -259 -27 -311 -57
l-35 -21 -38 26 c-45 29 -47 37 -16 57 34 23 219 207 263 263 69 87 154 238
154 274 0 19 -34 51 -53 51 -5 0 -17 -10 -28 -22z m-1469 -327 c377 -38 527
-65 683 -123 65 -23 61 -12 39 -117 -12 -52 -7 -71 18 -71 21 0 41 23 69 78
12 23 24 42 27 42 10 0 104 -51 104 -56 0 -3 -21 -25 -47 -49 -40 -36 -46 -45
-35 -58 15 -17 57 -9 126 24 49 23 57 23 95 2 37 -22 38 -29 6 -55 -14 -11
-25 -26 -25 -34 0 -22 50 -29 97 -12 l42 15 49 -51 c26 -28 77 -89 112 -136
35 -47 66 -87 69 -90 3 -3 23 -26 44 -52 21 -26 43 -53 50 -60 22 -23 141
-163 177 -208 19 -24 40 -49 47 -55 6 -7 44 -57 83 -111 108 -148 259 -473
314 -674 8 -30 20 -110 26 -178 16 -177 0 -270 -57 -340 -44 -54 -79 -72 -144
-72 -54 0 -129 18 -129 30 0 5 -12 11 -26 14 -30 8 -138 115 -221 219 -32 40
-63 79 -70 87 -40 51 -93 125 -135 190 -26 41 -52 80 -57 86 -4 5 -14 21 -21
35 -7 13 -35 57 -61 97 -27 40 -49 74 -49 77 0 3 -17 31 -37 62 -21 32 -40 63
-43 68 -3 6 -40 63 -83 128 -42 64 -77 120 -77 123 0 2 -5 10 -10 17 -6 7 -25
35 -43 62 -18 28 -52 81 -76 118 -25 38 -40 72 -35 75 16 12 59 85 83 142 21
48 24 76 28 218 3 131 1 163 -9 160 -8 -3 -18 -40 -26 -94 -23 -149 -42 -226
-79 -303 -39 -83 -41 -86 -103 -151 -49 -51 -173 -140 -195 -140 -7 0 -15 -3
-17 -8 -4 -9 -175 -85 -238 -105 -326 -105 -641 -175 -970 -216 -407 -50
-1458 -32 -1745 30 -67 14 -235 76 -310 112 -33 17 -105 58 -160 92 -94 58
-142 75 -112 39 43 -52 103 -98 177 -137 128 -66 174 -94 177 -104 7 -20 -101
-166 -190 -257 -134 -136 -227 -205 -492 -363 -250 -149 -389 -213 -490 -227
-91 -11 -155 25 -155 88 0 30 67 243 89 283 6 10 25 50 44 88 52 107 122 225
218 367 33 48 59 91 59 97 0 5 3 11 8 13 4 2 23 23 42 48 173 222 414 468 564
575 16 11 50 37 77 58 174 134 400 264 634 365 212 91 596 194 860 232 44 6
121 18 170 25 87 14 228 27 465 45 175 13 578 4 800 -19z m787 -1095 c8 -16
19 -34 24 -40 20 -24 312 -471 322 -493 5 -13 13 -23 17 -23 4 0 13 -13 20
-30 7 -16 16 -30 21 -30 5 0 9 -5 9 -11 0 -5 18 -37 40 -69 22 -33 44 -68 48
-77 7 -18 142 -220 167 -251 8 -9 43 -53 78 -97 137 -170 229 -239 371 -275
l71 -18 -4 -71 c-2 -57 0 -71 12 -71 9 0 21 21 32 52 21 65 44 98 115 167 96
93 180 122 358 122 93 0 107 -3 153 -28 182 -98 265 -353 213 -655 -18 -109
-45 -170 -94 -216 -76 -71 -164 -97 -330 -96 -128 0 -170 13 -205 62 -36 49
-84 94 -97 89 -19 -6 -12 -43 14 -78 18 -23 24 -47 26 -104 6 -119 -9 -187
-98 -430 -41 -112 -179 -399 -209 -432 -9 -11 -20 -26 -26 -35 -42 -64 -70
-104 -110 -153 -26 -31 -56 -69 -68 -83 -51 -62 -289 -300 -372 -371 -173
-148 -264 -211 -515 -357 -21 -12 -210 -105 -305 -149 -174 -82 -373 -146
-595 -193 -189 -40 -291 -47 -665 -47 -446 0 -637 19 -929 94 -148 38 -431
137 -514 180 -9 5 -66 33 -127 62 -60 29 -112 55 -115 58 -3 3 -40 24 -82 46
-43 22 -78 43 -78 48 0 4 -5 7 -11 7 -17 0 -253 161 -316 215 -68 58 -237 220
-267 255 -21 25 -57 65 -80 90 -23 25 -53 59 -66 76 -14 17 -50 62 -80 100
-100 124 -179 252 -264 424 -112 227 -164 393 -173 550 l-5 95 61 60 c41 40
63 69 67 91 11 62 -6 57 -85 -25 -43 -44 -96 -87 -117 -96 -78 -34 -290 -4
-351 50 -6 5 -30 23 -52 39 -24 17 -53 53 -73 90 -33 61 -33 61 -33 201 0 152
11 205 67 317 51 105 113 157 234 198 82 29 295 32 370 7 59 -20 79 -38 97
-91 16 -47 31 -51 35 -9 3 31 -16 81 -52 135 l-18 27 37 16 c21 8 39 15 42 15
15 0 299 148 398 209 221 133 330 223 478 395 62 73 147 197 147 215 0 14 -4
14 105 -4 396 -66 538 -77 1085 -82 607 -6 750 3 1030 62 41 9 95 20 120 25
25 4 81 18 125 30 44 12 112 30 150 41 417 112 544 169 720 323 l40 35 23 -27
c13 -15 30 -40 39 -56z"/>
<path d="M4217 6743 c-23 -23 23 -35 243 -63 413 -53 519 -77 765 -174 281
-111 335 -129 359 -120 53 20 -79 82 -433 201 -210 71 -370 109 -591 143 -121
19 -330 27 -343 13z"/>
<path d="M4295 6318 c-211 -9 -295 -22 -295 -44 0 -24 45 -27 222 -15 469 31
987 23 1231 -20 120 -21 147 -20 147 4 0 21 -41 33 -170 51 -257 35 -687 45
-1135 24z"/>
<path d="M5760 6303 c0 -13 40 -47 153 -132 91 -68 142 -116 262 -248 44 -49
76 -65 89 -45 19 31 -185 246 -334 352 -91 65 -170 99 -170 73z"/>
<path d="M5482 6058 c-138 -80 -157 -90 -262 -143 -109 -54 -283 -121 -455
-174 -55 -18 -113 -36 -130 -42 -16 -6 -145 -39 -285 -75 -265 -67 -312 -80
-345 -94 -11 -4 -28 -11 -37 -14 -10 -3 -18 -11 -18 -17 0 -8 16 -10 53 -6 62
6 343 69 437 97 36 11 124 35 195 54 185 49 448 153 675 266 205 101 293 155
287 173 -8 24 -44 16 -115 -25z"/>
<path d="M5780 6011 c0 -10 57 -118 72 -136 18 -21 106 -142 135 -185 17 -25
43 -75 58 -110 49 -118 65 -150 75 -150 6 0 10 25 10 55 0 40 -9 74 -33 127
-74 167 -127 243 -252 360 -50 48 -65 57 -65 39z"/>
<path d="M2066 5681 c-9 -15 4 -22 169 -91 61 -25 119 -44 221 -70 62 -16 123
-34 135 -40 11 -7 30 -9 42 -6 11 3 51 -1 89 -9 44 -10 158 -17 316 -20 224
-5 244 -4 215 10 -22 10 -95 18 -230 25 -248 13 -258 14 -285 54 -12 17 -26
33 -30 34 -4 2 -8 9 -8 16 0 19 -60 50 -72 38 -12 -12 0 -35 41 -81 12 -13 20
-26 18 -28 -2 -2 -27 2 -55 8 -40 8 -56 17 -69 40 -13 21 -25 29 -46 29 -24 0
-27 -3 -22 -21 6 -17 4 -20 -12 -16 -10 3 -38 11 -63 17 -73 19 -190 60 -258
91 -67 30 -87 35 -96 20z"/>
<path d="M1779 5199 c-72 -57 -156 -128 -175 -146 -7 -7 -15 -13 -17 -13 -2 0
-37 -22 -78 -49 -41 -26 -110 -67 -154 -90 -100 -52 -119 -66 -112 -86 10 -25
64 -18 131 17 33 18 63 35 66 39 3 3 30 22 60 41 92 59 320 244 320 260 0 5 7
16 15 24 13 13 22 54 11 54 -2 0 -32 -23 -67 -51z"/>
<path d="M6380 4787 c0 -17 93 -132 154 -190 53 -50 151 -107 185 -107 28 0
52 11 45 21 -3 5 -15 9 -27 9 -46 0 -117 60 -227 190 -30 36 -62 70 -70 77
-20 16 -60 16 -60 0z"/>
<path d="M1130 4770 c-14 -10 -22 -22 -18 -26 9 -9 81 20 86 35 6 18 -41 12
-68 -9z"/>
<path d="M6842 4560 c-34 -21 -42 -40 -18 -40 21 0 71 45 59 53 -5 3 -24 -3
-41 -13z"/>
<path d="M5552 5562 c6 -57 71 -192 128 -267 48 -62 128 -141 135 -133 7 7
-108 228 -139 268 -6 8 -20 31 -30 50 -37 69 -78 130 -88 130 -7 0 -9 -19 -6
-48z"/>
<path d="M2215 5320 c-10 -17 48 -37 160 -54 61 -10 133 -21 160 -26 51 -10
328 -40 365 -40 29 0 25 19 -7 31 -41 16 -121 27 -283 38 -86 7 -187 21 -248
36 -113 27 -138 30 -147 15z"/>
<path d="M3007 5234 c-34 -10 -11 -29 39 -32 46 -2 85 10 73 22 -8 9 -91 15
-112 10z"/>
<path d="M5851 5107 c-8 -11 -4 -21 19 -46 34 -35 50 -39 50 -13 -1 18 -15 39
-41 60 -13 10 -18 10 -28 -1z"/>
<path d="M3435 4805 c-219 -20 -375 -52 -375 -77 0 -13 113 -6 350 23 214 26
350 49 350 60 0 12 -155 9 -325 -6z"/>
<path d="M4331 4771 c-7 -5 -9 -11 -4 -14 23 -14 596 -97 671 -97 70 0 3 27
-138 55 -36 7 -87 18 -115 25 -62 15 -283 40 -350 40 -27 0 -56 -4 -64 -9z"/>
<path d="M3445 4505 c-61 -31 -88 -66 -88 -114 0 -53 17 -77 76 -111 134 -77
330 0 314 123 -10 71 -80 118 -187 124 -54 3 -73 -1 -115 -22z"/>
<path d="M4268 4513 c-15 -2 -45 -22 -67 -44 -37 -35 -41 -44 -41 -88 0 -45 3
-52 40 -84 72 -61 169 -74 255 -33 65 30 86 55 92 109 5 39 1 48 -27 81 -18
20 -49 43 -68 51 -32 14 -120 18 -184 8z"/>
<path d="M775 4311 c-120 -57 -175 -152 -175 -302 0 -83 2 -90 25 -105 27 -18
129 -30 169 -20 29 7 53 43 39 57 -6 6 -30 5 -61 -1 -62 -14 -88 -3 -108 45
-17 41 -18 110 -1 147 20 44 78 108 123 134 53 31 87 25 105 -19 18 -46 39
-67 66 -67 48 0 40 46 -22 116 -43 48 -83 52 -160 15z"/>
<path d="M7125 4241 c-32 -14 -108 -100 -101 -116 10 -26 60 -18 89 15 15 16
27 34 27 39 0 11 25 21 55 21 28 0 67 -36 110 -100 24 -37 29 -55 30 -106 0
-50 -5 -68 -28 -102 -32 -50 -62 -59 -122 -40 -48 16 -69 10 -63 -18 5 -29 47
-44 124 -44 95 0 106 11 128 119 17 79 17 88 0 153 -14 58 -24 77 -60 113 -68
67 -132 89 -189 66z"/>
<path d="M7190 4110 c0 -6 11 -27 24 -48 21 -31 30 -65 35 -134 1 -5 7 -8 15
-8 30 0 30 92 0 152 -19 37 -74 65 -74 38z"/>
<path d="M5030 3161 c0 -12 112 -66 158 -76 17 -4 32 -10 32 -15 0 -36 -124
-303 -186 -401 -42 -66 -69 -95 -164 -179 -107 -95 -211 -159 -331 -206 -279
-108 -518 -144 -730 -110 -317 51 -611 157 -759 273 -64 51 -145 138 -193 208
-22 33 -43 62 -47 65 -12 10 -88 176 -95 206 -6 30 -3 33 47 59 29 15 67 40
85 55 46 40 20 45 -75 14 -42 -14 -104 -32 -138 -39 -58 -14 -198 -67 -238
-91 -59 -35 60 -46 161 -15 l63 19 27 -52 c16 -28 39 -74 53 -101 14 -28 28
-51 33 -53 4 -2 7 -8 7 -14 0 -6 14 -30 30 -55 17 -24 30 -47 30 -51 1 -13
105 -117 160 -158 145 -109 318 -200 480 -252 215 -70 583 -89 825 -44 66 13
134 27 150 32 17 5 62 18 100 30 77 23 241 100 271 128 10 10 35 28 54 42 85
59 209 200 264 300 11 19 22 37 25 40 16 13 63 96 121 213 55 111 66 128 84
123 89 -21 216 -13 216 14 0 24 -108 52 -298 76 -194 25 -222 27 -222 15z"/>
<path d="M2720 1586 c0 -20 16 -29 40 -21 32 10 25 35 -10 35 -19 0 -30 -5
-30 -14z"/>
<path d="M2835 1530 c-17 -28 99 -81 290 -135 72 -20 376 -72 465 -79 175 -14
219 -16 224 -7 14 22 -70 43 -222 56 -86 8 -182 19 -212 26 -105 22 -277 69
-346 95 -128 48 -188 61 -199 44z"/>
<path d="M3890 1321 c0 -22 35 -34 49 -17 7 9 7 16 -1 24 -19 19 -48 14 -48
-7z"/>
</g>
</svg>